<svg xmlns="http://www.w3.org/2000/svg" viewBox="0 0 175.09 167.08"><defs><style>.cls-1{fill:#fff;}</style></defs><title>Asset 3</title><g id="Layer_2" data-name="Layer 2"><g id="Layer_1-2" data-name="Layer 1"><polygon class="cls-1" points="48.49 105.28 8.62 67.21 63.09 58.72 86.98 9.04 111.89 58.22 166.52 65.59 127.44 104.47 137.32 158.71 88.26 133.56 39.73 159.71 48.49 105.28"/><path d="M87.08,18.08l20.29,40.07,1.9,3.75,4.17.57,44.52,6-31.85,31.68-3,3,.76,4.14,8,44.19L92,131,88.22,129l-3.71,2L45,152.34,52.11,108l.67-4.15-3-2.9-32.49-31L61.63,63l4.16-.65,1.82-3.79L87.08,18.08M86.89,0,60.4,55.09,0,64.5l44.21,42.22L34.5,167.08l53.81-29L142.71,166l-11-60.14,43.33-43.11-60.58-8.17L86.89,0Z"/></g></g></svg>